<svg width="27" height="24" viewBox="0 0 37 34" fill="none" xmlns="http://www.w3.org/2000/svg">
<path d="M3.96427 31.5714H9.9107V26.1071H3.96427V31.5714ZM11.2321 31.5714H17.8393V26.1071H11.2321V31.5714ZM3.96427 24.8929H9.9107V18.8214H3.96427V24.8929ZM11.2321 24.8929H17.8393V18.8214H11.2321V24.8929ZM3.96427 17.6071H9.9107V12.1429H3.96427V17.6071ZM19.1607 31.5714H25.7678V26.1071H19.1607V31.5714ZM11.2321 17.6071H17.8393V12.1429H11.2321V17.6071ZM27.0893 31.5714H33.0357V26.1071H27.0893V31.5714ZM19.1607 24.8929H25.7678V18.8214H19.1607V24.8929ZM11.8928 8.5V3.03571C11.8928 2.87128 11.8275 2.72898 11.6967 2.60882C11.5659 2.48865 11.4111 2.42857 11.2321 2.42857H9.9107C9.73175 2.42857 9.5769 2.48865 9.44613 2.60882C9.31537 2.72898 9.24998 2.87128 9.24998 3.03571V8.5C9.24998 8.66443 9.31537 8.80673 9.44613 8.9269C9.5769 9.04706 9.73175 9.10714 9.9107 9.10714H11.2321C11.4111 9.10714 11.5659 9.04706 11.6967 8.9269C11.8275 8.80673 11.8928 8.66443 11.8928 8.5ZM27.0893 24.8929H33.0357V18.8214H27.0893V24.8929ZM19.1607 17.6071H25.7678V12.1429H19.1607V17.6071ZM27.0893 17.6071H33.0357V12.1429H27.0893V17.6071ZM27.75 8.5V3.03571C27.75 2.87128 27.6846 2.72898 27.5538 2.60882C27.4231 2.48865 27.2682 2.42857 27.0893 2.42857H25.7678C25.5889 2.42857 25.434 2.48865 25.3033 2.60882C25.1725 2.72898 25.1071 2.87128 25.1071 3.03571V8.5C25.1071 8.66443 25.1725 8.80673 25.3033 8.9269C25.434 9.04706 25.5889 9.10714 25.7678 9.10714H27.0893C27.2682 9.10714 27.4231 9.04706 27.5538 8.9269C27.6846 8.80673 27.75 8.66443 27.75 8.5ZM35.6786 7.28571V31.5714C35.6786 32.2292 35.417 32.7984 34.894 33.279C34.3709 33.7597 33.7515 34 33.0357 34H3.96427C3.24849 34 2.62907 33.7597 2.10601 33.279C1.58294 32.7984 1.32141 32.2292 1.32141 31.5714V7.28571C1.32141 6.62798 1.58294 6.05878 2.10601 5.57812C2.62907 5.09747 3.24849 4.85714 3.96427 4.85714H6.60713V3.03571C6.60713 2.20089 6.9306 1.48624 7.57755 0.891741C8.2245 0.297247 9.00221 0 9.9107 0H11.2321C12.1406 0 12.9183 0.297247 13.5653 0.891741C14.2122 1.48624 14.5357 2.20089 14.5357 3.03571V4.85714H22.4643V3.03571C22.4643 2.20089 22.7877 1.48624 23.4347 0.891741C24.0816 0.297247 24.8594 0 25.7678 0H27.0893C27.9977 0 28.7755 0.297247 29.4224 0.891741C30.0694 1.48624 30.3928 2.20089 30.3928 3.03571V4.85714H33.0357C33.7515 4.85714 34.3709 5.09747 34.894 5.57812C35.417 6.05878 35.6786 6.62798 35.6786 7.28571Z" fill="black"/>
</svg>
